# xmcd CD database file
#
# Track frame offsets:
#	150
#	11684
#	26815
#	43425
#	58533
#	70282
#	85410
#	104884
#	119735
#	137758
#	151478
#	165508
#	182555
#	201082
#
# Disc length: 2861 seconds
#
# Revision: 0
# Processed by: cddbd v1.5.2PL0 Copyright (c) Steve Scherf et al.
# Submitted via: CdAid (MTCDDB.DLL V2003.12.21)
#
DISCID=d00b2b0e
DTITLE=Mateus and Lucas - Me Chama
DYEAR=1997
DGENRE=Country
TTITLE0=Folia Sertaneja
TTITLE1=Loira e Morena
TTITLE2=Me Chama
TTITLE3=As Asas do Vento
TTITLE4=Bichinho de Estimação
TTITLE5=Meu Coração Jamais Te Disse Adeus
TTITLE6=Lua e o Lobo
TTITLE7=Deixa Eu Te Chamar de Meu Bem
TTITLE8=Falar Só De Amor Não Basta
TTITLE9=Segura Peão
TTITLE10=Não Comente o Nosso Amor
TTITLE11=O Milagre da Fé
TTITLE12=Decidi Te Ligar
TTITLE13=O Carro e a Faculdade
EXTD=ID3G:   2 YEAR: 1997
EXTT0=
EXTT1=
EXTT2=
EXTT3=
EXTT4=
EXTT5=
EXTT6=
EXTT7=
EXTT8=
EXTT9=
EXTT10=
EXTT11=
EXTT12=
EXTT13=
PLAYORDER=
